<mxfile host="app.diagrams.net" modified="2020-04-01T08:30:22.797Z" agent="5.0 (Windows NT 10.0; Win64; x64) AppleWebKit/537.36 (KHTML, like Gecko) Chrome/80.0.3987.149 Safari/537.36" etag="aXsZoDVBbOEUgruMg5m8" version="12.9.6" type="github">
  <diagram id="UoA-Zzfz1vhdeuAnnWxP" name="Page-1">
    <mxGraphModel dx="1278" dy="582" grid="1" gridSize="10" guides="1" tooltips="1" connect="1" arrows="1" fold="1" page="1" pageScale="1" pageWidth="827" pageHeight="1169" math="0" shadow="0">
      <root>
        <mxCell id="0" />
        <mxCell id="1" parent="0" />
        <mxCell id="crJnKc-flBkaumyG6s30-13" style="edgeStyle=orthogonalEdgeStyle;rounded=0;orthogonalLoop=1;jettySize=auto;html=1;entryX=0.5;entryY=0;entryDx=0;entryDy=0;" edge="1" parent="1" source="crJnKc-flBkaumyG6s30-3" target="crJnKc-flBkaumyG6s30-11">
          <mxGeometry relative="1" as="geometry" />
        </mxCell>
        <mxCell id="crJnKc-flBkaumyG6s30-3" value="需求分析" style="rounded=0;whiteSpace=wrap;html=1;" vertex="1" parent="1">
          <mxGeometry x="60" y="60" width="120" height="60" as="geometry" />
        </mxCell>
        <mxCell id="crJnKc-flBkaumyG6s30-10" style="edgeStyle=orthogonalEdgeStyle;rounded=0;orthogonalLoop=1;jettySize=auto;html=1;entryX=0.5;entryY=0;entryDx=0;entryDy=0;" edge="1" parent="1" source="crJnKc-flBkaumyG6s30-5" target="crJnKc-flBkaumyG6s30-6">
          <mxGeometry relative="1" as="geometry" />
        </mxCell>
        <mxCell id="crJnKc-flBkaumyG6s30-5" value="设计" style="rounded=0;whiteSpace=wrap;html=1;" vertex="1" parent="1">
          <mxGeometry x="270" y="60" width="120" height="60" as="geometry" />
        </mxCell>
        <mxCell id="crJnKc-flBkaumyG6s30-7" style="edgeStyle=orthogonalEdgeStyle;rounded=0;orthogonalLoop=1;jettySize=auto;html=1;" edge="1" parent="1" source="crJnKc-flBkaumyG6s30-6" target="crJnKc-flBkaumyG6s30-8">
          <mxGeometry relative="1" as="geometry">
            <mxPoint x="330" y="300" as="targetPoint" />
          </mxGeometry>
        </mxCell>
        <mxCell id="crJnKc-flBkaumyG6s30-6" value="设计评审" style="rounded=0;whiteSpace=wrap;html=1;" vertex="1" parent="1">
          <mxGeometry x="270" y="170" width="120" height="60" as="geometry" />
        </mxCell>
        <mxCell id="crJnKc-flBkaumyG6s30-9" style="edgeStyle=orthogonalEdgeStyle;rounded=0;orthogonalLoop=1;jettySize=auto;html=1;entryX=1;entryY=0.5;entryDx=0;entryDy=0;exitX=1;exitY=0.5;exitDx=0;exitDy=0;" edge="1" parent="1" source="crJnKc-flBkaumyG6s30-8" target="crJnKc-flBkaumyG6s30-5">
          <mxGeometry relative="1" as="geometry">
            <Array as="points">
              <mxPoint x="430" y="300" />
              <mxPoint x="430" y="90" />
            </Array>
          </mxGeometry>
        </mxCell>
        <mxCell id="crJnKc-flBkaumyG6s30-16" value="评审未通过" style="text;html=1;align=center;verticalAlign=middle;resizable=0;points=[];labelBackgroundColor=#ffffff;" vertex="1" connectable="0" parent="crJnKc-flBkaumyG6s30-9">
          <mxGeometry x="-0.6869" y="3" relative="1" as="geometry">
            <mxPoint x="5" y="-97" as="offset" />
          </mxGeometry>
        </mxCell>
        <mxCell id="crJnKc-flBkaumyG6s30-17" value="评审通过" style="edgeStyle=orthogonalEdgeStyle;rounded=0;orthogonalLoop=1;jettySize=auto;html=1;entryX=0.5;entryY=0;entryDx=0;entryDy=0;" edge="1" parent="1" source="crJnKc-flBkaumyG6s30-8" target="crJnKc-flBkaumyG6s30-18">
          <mxGeometry relative="1" as="geometry">
            <mxPoint x="330" y="430" as="targetPoint" />
          </mxGeometry>
        </mxCell>
        <mxCell id="crJnKc-flBkaumyG6s30-8" value="" style="rhombus;whiteSpace=wrap;html=1;" vertex="1" parent="1">
          <mxGeometry x="290" y="260" width="80" height="80" as="geometry" />
        </mxCell>
        <mxCell id="crJnKc-flBkaumyG6s30-15" style="edgeStyle=orthogonalEdgeStyle;rounded=0;orthogonalLoop=1;jettySize=auto;html=1;" edge="1" parent="1" source="crJnKc-flBkaumyG6s30-11" target="crJnKc-flBkaumyG6s30-14">
          <mxGeometry relative="1" as="geometry" />
        </mxCell>
        <mxCell id="crJnKc-flBkaumyG6s30-11" value="需求评审" style="rounded=0;whiteSpace=wrap;html=1;" vertex="1" parent="1">
          <mxGeometry x="60" y="170" width="120" height="60" as="geometry" />
        </mxCell>
        <mxCell id="crJnKc-flBkaumyG6s30-19" value="评审未通过" style="edgeStyle=orthogonalEdgeStyle;rounded=0;orthogonalLoop=1;jettySize=auto;html=1;entryX=0.5;entryY=0;entryDx=0;entryDy=0;" edge="1" parent="1" source="crJnKc-flBkaumyG6s30-14" target="crJnKc-flBkaumyG6s30-23">
          <mxGeometry relative="1" as="geometry">
            <mxPoint x="120" y="380" as="targetPoint" />
          </mxGeometry>
        </mxCell>
        <mxCell id="crJnKc-flBkaumyG6s30-20" value="评审t通过" style="edgeStyle=orthogonalEdgeStyle;rounded=0;orthogonalLoop=1;jettySize=auto;html=1;entryX=0;entryY=0.5;entryDx=0;entryDy=0;" edge="1" parent="1" source="crJnKc-flBkaumyG6s30-14" target="crJnKc-flBkaumyG6s30-5">
          <mxGeometry relative="1" as="geometry">
            <Array as="points">
              <mxPoint x="210" y="300" />
              <mxPoint x="210" y="90" />
            </Array>
          </mxGeometry>
        </mxCell>
        <mxCell id="crJnKc-flBkaumyG6s30-14" value="" style="rhombus;whiteSpace=wrap;html=1;" vertex="1" parent="1">
          <mxGeometry x="80" y="260" width="80" height="80" as="geometry" />
        </mxCell>
        <mxCell id="crJnKc-flBkaumyG6s30-18" value="开发阶段" style="rounded=0;whiteSpace=wrap;html=1;" vertex="1" parent="1">
          <mxGeometry x="270" y="400" width="120" height="60" as="geometry" />
        </mxCell>
        <mxCell id="crJnKc-flBkaumyG6s30-28" style="edgeStyle=orthogonalEdgeStyle;rounded=0;orthogonalLoop=1;jettySize=auto;html=1;entryX=0.5;entryY=0;entryDx=0;entryDy=0;" edge="1" parent="1" source="crJnKc-flBkaumyG6s30-22" target="crJnKc-flBkaumyG6s30-25">
          <mxGeometry relative="1" as="geometry" />
        </mxCell>
        <mxCell id="crJnKc-flBkaumyG6s30-22" value="开发任务分配/领取" style="rounded=0;whiteSpace=wrap;html=1;" vertex="1" parent="1">
          <mxGeometry x="560" y="60" width="120" height="60" as="geometry" />
        </mxCell>
        <mxCell id="crJnKc-flBkaumyG6s30-23" value="项目/任务终止" style="rounded=0;whiteSpace=wrap;html=1;" vertex="1" parent="1">
          <mxGeometry x="60" y="400" width="120" height="60" as="geometry" />
        </mxCell>
        <mxCell id="crJnKc-flBkaumyG6s30-29" style="edgeStyle=orthogonalEdgeStyle;rounded=0;orthogonalLoop=1;jettySize=auto;html=1;entryX=0.5;entryY=0;entryDx=0;entryDy=0;" edge="1" parent="1" source="crJnKc-flBkaumyG6s30-25" target="crJnKc-flBkaumyG6s30-26">
          <mxGeometry relative="1" as="geometry" />
        </mxCell>
        <mxCell id="crJnKc-flBkaumyG6s30-25" value="功能/详细设计" style="rounded=0;whiteSpace=wrap;html=1;" vertex="1" parent="1">
          <mxGeometry x="560" y="170" width="120" height="60" as="geometry" />
        </mxCell>
        <mxCell id="crJnKc-flBkaumyG6s30-30" style="edgeStyle=orthogonalEdgeStyle;rounded=0;orthogonalLoop=1;jettySize=auto;html=1;entryX=0.5;entryY=0;entryDx=0;entryDy=0;" edge="1" parent="1" source="crJnKc-flBkaumyG6s30-26" target="crJnKc-flBkaumyG6s30-27">
          <mxGeometry relative="1" as="geometry" />
        </mxCell>
        <mxCell id="crJnKc-flBkaumyG6s30-26" value="开发实现" style="rounded=0;whiteSpace=wrap;html=1;" vertex="1" parent="1">
          <mxGeometry x="560" y="290" width="120" height="60" as="geometry" />
        </mxCell>
        <mxCell id="crJnKc-flBkaumyG6s30-27" value="提交测试" style="rounded=0;whiteSpace=wrap;html=1;" vertex="1" parent="1">
          <mxGeometry x="560" y="400" width="120" height="60" as="geometry" />
        </mxCell>
        <mxCell id="crJnKc-flBkaumyG6s30-34" style="edgeStyle=orthogonalEdgeStyle;rounded=0;orthogonalLoop=1;jettySize=auto;html=1;entryX=0.5;entryY=0;entryDx=0;entryDy=0;" edge="1" parent="1" source="crJnKc-flBkaumyG6s30-31" target="crJnKc-flBkaumyG6s30-32">
          <mxGeometry relative="1" as="geometry" />
        </mxCell>
        <mxCell id="crJnKc-flBkaumyG6s30-31" value="测试任务分配/领取" style="rounded=0;whiteSpace=wrap;html=1;" vertex="1" parent="1">
          <mxGeometry x="820" y="60" width="120" height="60" as="geometry" />
        </mxCell>
        <mxCell id="crJnKc-flBkaumyG6s30-35" style="edgeStyle=orthogonalEdgeStyle;rounded=0;orthogonalLoop=1;jettySize=auto;html=1;entryX=0.5;entryY=0;entryDx=0;entryDy=0;" edge="1" parent="1" source="crJnKc-flBkaumyG6s30-32" target="crJnKc-flBkaumyG6s30-33">
          <mxGeometry relative="1" as="geometry" />
        </mxCell>
        <mxCell id="crJnKc-flBkaumyG6s30-32" value="撰写测试用例" style="rounded=0;whiteSpace=wrap;html=1;" vertex="1" parent="1">
          <mxGeometry x="820" y="160" width="120" height="60" as="geometry" />
        </mxCell>
        <mxCell id="crJnKc-flBkaumyG6s30-33" value="执行测试" style="rounded=0;whiteSpace=wrap;html=1;" vertex="1" parent="1">
          <mxGeometry x="820" y="280" width="120" height="60" as="geometry" />
        </mxCell>
        <mxCell id="crJnKc-flBkaumyG6s30-37" style="edgeStyle=orthogonalEdgeStyle;rounded=0;orthogonalLoop=1;jettySize=auto;html=1;" edge="1" parent="1" source="crJnKc-flBkaumyG6s30-36">
          <mxGeometry relative="1" as="geometry">
            <mxPoint x="190" y="780" as="targetPoint" />
          </mxGeometry>
        </mxCell>
        <mxCell id="crJnKc-flBkaumyG6s30-36" value="分解任务" style="rounded=0;whiteSpace=wrap;html=1;" vertex="1" parent="1">
          <mxGeometry x="130" y="660" width="120" height="60" as="geometry" />
        </mxCell>
        <mxCell id="crJnKc-flBkaumyG6s30-39" value="开发" style="rounded=0;whiteSpace=wrap;html=1;" vertex="1" parent="1">
          <mxGeometry x="130" y="780" width="120" height="60" as="geometry" />
        </mxCell>
        <mxCell id="crJnKc-flBkaumyG6s30-40" value="需求池" style="rounded=0;whiteSpace=wrap;html=1;" vertex="1" parent="1">
          <mxGeometry x="130" y="555" width="120" height="60" as="geometry" />
        </mxCell>
        <mxCell id="crJnKc-flBkaumyG6s30-49" style="edgeStyle=orthogonalEdgeStyle;rounded=0;orthogonalLoop=1;jettySize=auto;html=1;entryX=0;entryY=0.5;entryDx=0;entryDy=0;" edge="1" parent="1" source="crJnKc-flBkaumyG6s30-41" target="crJnKc-flBkaumyG6s30-42">
          <mxGeometry relative="1" as="geometry" />
        </mxCell>
        <mxCell id="crJnKc-flBkaumyG6s30-41" value="启动" style="rounded=0;whiteSpace=wrap;html=1;" vertex="1" parent="1">
          <mxGeometry x="170" y="920" width="120" height="60" as="geometry" />
        </mxCell>
        <mxCell id="crJnKc-flBkaumyG6s30-50" style="edgeStyle=orthogonalEdgeStyle;rounded=0;orthogonalLoop=1;jettySize=auto;html=1;entryX=0;entryY=0.5;entryDx=0;entryDy=0;" edge="1" parent="1" source="crJnKc-flBkaumyG6s30-42" target="crJnKc-flBkaumyG6s30-43">
          <mxGeometry relative="1" as="geometry" />
        </mxCell>
        <mxCell id="crJnKc-flBkaumyG6s30-42" value="开发" style="rounded=0;whiteSpace=wrap;html=1;" vertex="1" parent="1">
          <mxGeometry x="330" y="920" width="120" height="60" as="geometry" />
        </mxCell>
        <mxCell id="crJnKc-flBkaumyG6s30-51" style="edgeStyle=orthogonalEdgeStyle;rounded=0;orthogonalLoop=1;jettySize=auto;html=1;entryX=0;entryY=0.5;entryDx=0;entryDy=0;" edge="1" parent="1" source="crJnKc-flBkaumyG6s30-43" target="crJnKc-flBkaumyG6s30-44">
          <mxGeometry relative="1" as="geometry" />
        </mxCell>
        <mxCell id="crJnKc-flBkaumyG6s30-53" value="质量反馈" style="edgeStyle=orthogonalEdgeStyle;rounded=0;orthogonalLoop=1;jettySize=auto;html=1;entryX=0.583;entryY=0;entryDx=0;entryDy=0;entryPerimeter=0;exitX=0.5;exitY=0;exitDx=0;exitDy=0;" edge="1" parent="1" source="crJnKc-flBkaumyG6s30-43" target="crJnKc-flBkaumyG6s30-42">
          <mxGeometry relative="1" as="geometry">
            <mxPoint x="440" y="900" as="targetPoint" />
            <Array as="points">
              <mxPoint x="540" y="890" />
              <mxPoint x="400" y="890" />
            </Array>
          </mxGeometry>
        </mxCell>
        <mxCell id="crJnKc-flBkaumyG6s30-43" value="测试" style="rounded=0;whiteSpace=wrap;html=1;" vertex="1" parent="1">
          <mxGeometry x="480" y="920" width="120" height="60" as="geometry" />
        </mxCell>
        <mxCell id="crJnKc-flBkaumyG6s30-52" style="edgeStyle=orthogonalEdgeStyle;rounded=0;orthogonalLoop=1;jettySize=auto;html=1;entryX=0;entryY=0.5;entryDx=0;entryDy=0;" edge="1" parent="1" source="crJnKc-flBkaumyG6s30-44" target="crJnKc-flBkaumyG6s30-46">
          <mxGeometry relative="1" as="geometry" />
        </mxCell>
        <mxCell id="crJnKc-flBkaumyG6s30-44" value="交付" style="rounded=0;whiteSpace=wrap;html=1;" vertex="1" parent="1">
          <mxGeometry x="640" y="920" width="120" height="60" as="geometry" />
        </mxCell>
        <mxCell id="crJnKc-flBkaumyG6s30-47" style="edgeStyle=orthogonalEdgeStyle;rounded=0;orthogonalLoop=1;jettySize=auto;html=1;entryX=0.34;entryY=1.01;entryDx=0;entryDy=0;entryPerimeter=0;" edge="1" parent="1" source="crJnKc-flBkaumyG6s30-46" target="crJnKc-flBkaumyG6s30-42">
          <mxGeometry relative="1" as="geometry">
            <Array as="points">
              <mxPoint x="870" y="1050" />
              <mxPoint x="371" y="1050" />
            </Array>
          </mxGeometry>
        </mxCell>
        <mxCell id="crJnKc-flBkaumyG6s30-48" value="开发迭代" style="text;html=1;align=center;verticalAlign=middle;resizable=0;points=[];labelBackgroundColor=#ffffff;" vertex="1" connectable="0" parent="crJnKc-flBkaumyG6s30-47">
          <mxGeometry x="-0.0924" y="2" relative="1" as="geometry">
            <mxPoint as="offset" />
          </mxGeometry>
        </mxCell>
        <mxCell id="crJnKc-flBkaumyG6s30-46" value="响应反馈" style="rounded=0;whiteSpace=wrap;html=1;" vertex="1" parent="1">
          <mxGeometry x="810" y="920" width="120" height="60" as="geometry" />
        </mxCell>
      </root>
    </mxGraphModel>
  </diagram>
</mxfile>
